PathFileType	4	(X/Y/Z)	C:\Users\WrightLab\Desktop\Jo\P1_boxCal7.trc
DataRate	CameraRate	NumFrames	NumMarkers	Units	OrigDataRate	OrigDataStartFrame	OrigNumFrames
100.00	100.00	       17	19	mm	100.00	457	       609
Frame#	Time	Headset_Front			Headset_Back			Headset_Left			Headset_Right			Left_Shoulder			Right_Shoulder			Sternum			C7			Left Elbow			Right Elbow			Left Wrist			Right Wrist			Left ASIS			Right ASIS			S2			Left Knee			Right Knee			Left Ankle			Right Ankle			
		X1	Y1	Z1	X2	Y2	Z2	X3	Y3	Z3	X4	Y4	Z4	X5	Y5	Z5	X6	Y6	Z6	X7	Y7	Z7	X8	Y8	Z8	X9	Y9	Z9	X10	Y10	Z10	X11	Y11	Z11	X12	Y12	Z12	X13	Y13	Z13	X14	Y14	Z14	X15	Y15	Z15	X16	Y16	Z16	X17	Y17	Z17	X18	Y18	Z18	X19	Y19	Z19	

457	4.560	-225.86404	1047.63354	2338.59448													-451.05539	1321.92029	1891.13989	-317.00970	1566.82483	2057.20166							-212.75195	954.69629	2029.07214	-230.31870	895.76337	2472.70093	-428.75381	831.99164	1720.03760				-546.51910	941.47455	2035.62488				-316.68832	513.74652	2290.34106	-541.91156	514.64545	1998.17566	-263.96695	146.94955	2272.98608	-361.06241	209.53372	1941.33191	
458	4.570	-237.42905	1048.40002	2349.43140													-451.83435	1323.07605	1894.70837										-214.80046	955.67096	2036.61475	-247.12933	897.54901	2484.29224	-424.79749	833.34058	1723.67371				-549.53406	942.79138	2037.20959				-320.58038	513.93982	2292.84790	-545.10101	516.36743	2010.35193	-264.13568	147.25157	2272.89185	-372.93005	202.41463	1957.37415	
459	4.580	-249.60123	1050.30017	2360.63257													-452.67416	1324.18567	1898.72949										-218.08865	957.22479	2044.72607	-264.25452	899.71265	2496.33496	-420.73300	834.26544	1730.59546				-551.76312	943.41571	2039.32959				-324.05817	513.91565	2294.94727	-548.19708	519.70233	2014.93933	-265.33554	148.80835	2274.66162				
460	4.590	-260.85464	1050.93225	2369.53369																									-220.39165	957.69025	2051.06982	-280.79919	901.60968	2507.37573	-416.97794	836.10223	1732.65515				-554.81256	943.97614	2040.11816				-327.81897	514.01080	2298.09033	-550.47192	522.43170	2018.25391	-265.36957	148.72231	2274.58350				
461	4.600	-273.05328	1052.11670	2379.85376																									-223.75241	959.21863	2058.34912	-297.80185	903.61145	2517.46606	-413.60574	837.71808	1735.67322				-557.57996	945.09015	2042.37305				-332.47098	514.30408	2300.62646	-552.42761	524.12158	2020.90442	-265.40918	148.64655	2274.47974				
462	4.610	-285.04367	1053.13672	2388.81226																									-227.33931	959.52094	2064.24438	-315.10938	905.92871	2527.74536	-410.43430	838.90796	1740.41626				-560.42773	945.62946	2042.94543				-336.84439	514.96448	2304.36401	-553.70441	525.42578	2025.95776	-266.62292	150.22546	2276.18091				
463	4.620	-296.78531	1053.71643	2398.10352																									-230.42787	960.67139	2070.60791	-331.82645	907.42969	2536.87866	-407.00635	840.76556	1741.36792				-563.36157	945.95813	2044.33398				-341.05927	513.97913	2305.86230	-554.23590	525.08105	2032.78455	-267.88867	151.68158	2277.75269				
464	4.630	-308.88898	1054.99036	2407.44849																									-233.97002	961.22266	2076.32104				-404.56400	841.25464	1746.00195				-566.32007	946.66089	2046.07788				-345.76794	514.64874	2310.29395	-553.96362	524.93042	2035.40564	-268.08151	151.26665	2277.27368				
465	4.640	-321.03030	1055.20703	2415.36743																									-237.97528	961.40204	2081.32935				-401.87875	842.35419	1751.32813				-570.39478	946.56610	2048.87231				-349.94598	513.76843	2311.75439	-553.51086	523.73773	2042.53137	-269.35065	152.31715	2278.05884				
466	4.650	-332.87527	1056.28503	2423.43286																									-241.50729	961.59845	2087.52661				-399.72900	842.62012	1754.84790				-573.64862	946.51422	2049.63062				-353.77328	513.53638	2314.63721	-552.09186	523.56488	2041.51904	-269.98105	151.96681	2277.62378				
467	4.660																												-245.37865	961.99487	2093.18140				-396.84958	844.90717	1753.67334				-576.83484	946.64038	2049.96704				-358.77267	513.70062	2317.78833	-549.90234	521.60809	2045.25476	-271.63779	155.49428	2281.07446				
468	4.670																												-249.61075	961.84039	2097.10229				-395.56567	845.20245	1759.42590				-581.03400	946.03809	2052.57715				-362.34766	512.90479	2321.20264	-547.33282	518.30389	2052.36646	-271.66873	155.50449	2281.01831				
469	4.680																												-254.26799	960.90558	2101.85278				-394.40936	845.96423	1761.32117				-584.56207	945.72498	2053.83569				-367.01657	512.37659	2323.31030	-543.78455	515.97424	2055.79639	-272.15723	155.75119	2281.09790				
470	4.690																												-259.05545	960.65924	2105.47437				-393.19647	845.99664	1765.01880				-587.35138	945.51654	2054.53564				-371.59808	513.08545	2328.48950	-542.07019	514.08990	2055.62964	-272.68161	155.81134	2281.41748				
471	4.700																												-263.54190	959.79590	2111.85034				-393.02750	845.71985	1766.94763				-591.59515	945.20905	2056.07593				-377.07983	512.28766	2331.45117	-542.97363	510.00046	2064.06372	-273.60892	155.94498	2281.73828				
472	4.710																												-268.24164	958.83954	2115.96069				-392.33673	845.75409	1770.16797				-594.36676	944.71002	2057.90063				-381.92801	513.25671	2335.86255	-545.08136	508.10477	2066.66772	-274.08710	159.47571	2285.28784				
473	4.720																												-273.12527	957.71356	2121.28027				-392.74258	844.89551	1773.61609				-597.62805	944.48248	2058.18164				-388.11429	513.35571	2339.81665	-547.77576	506.04984	2069.99316	-275.03186	159.39824	2286.27515				
